# xmcd
#
# Track frame offsets:
#	150
#	39139
#	59765
#	80430
#	97698
#	121790
#	149845
#	186869
#	203337
#	236192
#	264468
#	279069
#	297003
#
# Disc length: 4416 seconds
#
# Revision: 1
# Processed by: cddbd v1.5.1PL2 Copyright (c) Steve Scherf et al.
# Submitted via: audiograbber 1.83.01
#
DISCID=b0113e0d
DTITLE=Doug Sahm And The Last Real Texas Blues Band - Gypsy Tea Room - Disc (1 
DTITLE=Of 2) Bootleg
DYEAR=1988
DGENRE=Blues
TTITLE0=Doug Sahm - Jam
TTITLE1=Doug Sahm - I Won't Shed A Tear
TTITLE2=Doug Sahm - Dealer's Blues
TTITLE3=Doug Sahm - Glad For Your Sake
TTITLE4=Doug Sahm - She's About A Mover
TTITLE5=Doug Sahm - Bad Boy
TTITLE6=Doug Sahm - Reconsider Baby
TTITLE7=Doug Sahm - The Things I Used To Do
TTITLE8=Doug Sahm - I Ain't Got Nothin' Yet
TTITLE9=Doug Sahm - Don't Let the Sun Catch You Cryin
TTITLE10=Doug Sahm - Texas Tornado
TTITLE11=Doug Sahm - Crossroads
TTITLE12=Doug Sahm - You're Gonna Miss Your Baby
EXTD=
EXTT0=
EXTT1=
EXTT2=
EXTT3=
EXTT4=
EXTT5=
EXTT6=
EXTT7=
EXTT8=
EXTT9=
EXTT10=
EXTT11=
EXTT12=
PLAYORDER=
